<svg xmlns="http://www.w3.org/2000/svg" viewBox="0 0 736.46 168.16"><defs><style>.cls-1{fill:#fff;}</style></defs><title>Layer 1</title><g id="Layer_2" data-name="Layer 2"><g id="Layer_1-2" data-name="Layer 1"><polyline class="cls-1" points="0 0 0 55.96 28.33 41.97 56.13 56.05 84.26 41.99 112.25 55.96 140.23 41.97 168.14 55.96 168.14 0 0 0"/><path class="cls-1" d="M64.15,108.62a10.46,10.46,0,0,1-14.78.81,10.32,10.32,0,0,1-.81-.81l-2-2.43a24.52,24.52,0,0,0-34.63-1.8q-.94.85-1.8,1.8l-2,2.43A10.44,10.44,0,0,1,0,112.09v-42l28.32-14L56.12,70.17,84.25,56.11l28,14,28-14,27.91,14v42.05a10.42,10.42,0,0,1-7.49-3.47l-2-2.43a24.52,24.52,0,0,0-34.63-1.8q-.95.86-1.8,1.8l-2,2.43a10.46,10.46,0,0,1-14.78.81,10.32,10.32,0,0,1-.81-.81l-2-2.43A24.52,24.52,0,0,0,68,104.46q-.94.86-1.8,1.8l-2,2.43"/><path class="cls-1" d="M168.1,166.36a79.32,79.32,0,0,1-16.82,1.8,5.54,5.54,0,0,1-5.58-5.52v-.08a5.65,5.65,0,0,1,5.69-5.61h.69a.29.29,0,0,0,.3-.28v0a.31.31,0,0,0-.15-.26,18.47,18.47,0,0,0-17.18.92,78.25,78.25,0,0,1-39.83,10.84,5.56,5.56,0,0,1-5.6-5.52v-.07A5.65,5.65,0,0,1,95.31,157H96a.29.29,0,0,0,.3-.28v0a.3.3,0,0,0-.14-.26,18.47,18.47,0,0,0-17.11.92,78.25,78.25,0,0,1-39.83,10.84,5.54,5.54,0,0,1-5.6-5.5v-.09A5.65,5.65,0,0,1,39.33,157H40a.29.29,0,0,0,.3-.28v0a.3.3,0,0,0-.14-.26,18.44,18.44,0,0,0-17.15.88,78,78,0,0,1-23,9V126.11A24.61,24.61,0,0,0,18.59,118l2-2.43a10.49,10.49,0,0,1,14.81-.78,9.57,9.57,0,0,1,.78.78l2,2.43a24.53,24.53,0,0,0,34.64,1.8q.95-.85,1.8-1.8l2-2.43a10.49,10.49,0,0,1,14.81-.78,9.57,9.57,0,0,1,.78.78l2,2.43a24.53,24.53,0,0,0,34.64,1.8q.94-.85,1.8-1.8l2-2.43a10.49,10.49,0,0,1,14.81-.78,9.57,9.57,0,0,1,.78.78l2,2.43a24.35,24.35,0,0,0,17.87,8.11v40.25"/><polyline class="cls-1" points="215.61 56.06 219.53 56.06 219.53 81.24 249.66 81.24 249.66 56.06 253.58 56.06 253.58 112.2 249.66 112.2 249.66 84.65 219.53 84.65 219.53 112.2 215.61 112.2 215.61 56.06"/><rect class="cls-1" x="266.34" y="71.31" width="3.76" height="40.89"/><path class="cls-1" d="M279.6,107.6l2.21-2.81c3.5,2.9,7.17,5.2,13.06,5.2,6.4,0,9.73-3.75,9.73-8.1,0-5.11-5.29-7.32-10-9-6.23-2.21-13.05-4.68-13.05-11.67,0-6,4.69-10.9,13.23-10.9a19,19,0,0,1,11.69,4.26l-2.05,2.64c-2.73-2-5.63-3.67-9.82-3.67-6.31,0-9.21,3.67-9.21,7.42,0,4.68,4.78,6.47,9.64,8.26,6.4,2.39,13.4,4.52,13.4,12.52,0,6.14-4.95,11.5-13.83,11.5a23.66,23.66,0,0,1-15-5.62"/><path class="cls-1" d="M319.66,100.87V74.55h-6.41V71.31h6.49V59.47h3.8V71.31H335.4v3.24H323.5v26.66c0,5.2,1.28,8.69,6.91,8.69a13.61,13.61,0,0,0,5.12-1.28l1,3.07a23.06,23.06,0,0,1-6.65,1.53c-7.94,0-10.24-5-10.24-12.35"/><path class="cls-1" d="M340.15,91.84c0-13.71,8.53-21.55,18.35-21.55s18.43,7.84,18.43,21.55c0,13.55-8.53,21.38-18.43,21.38s-18.35-7.83-18.35-21.38m32.86,0c0-10.82-6.23-18.23-14.51-18.23S344.05,81,344.05,91.84s6.14,18.06,14.42,18.06,14.58-7.32,14.58-18.06Z"/><path class="cls-1" d="M385.25,71.31h3.57v7.58h.23c2.73-5,6.74-8.6,11.6-8.6a8.52,8.52,0,0,1,4.1.85l-.86,3.41a9,9,0,0,0-3.75-.68c-3.67,0-8,2.81-11.18,10.47V112.2h-3.71V71.31"/><path class="cls-1" d="M425.05,91.84c0-13.71,8.71-21.55,18.69-21.55,5.63,0,9.22,2.47,12,5l-2.22,2.64c-2.64-2.47-5.71-4.34-9.72-4.34C435.43,73.59,429,81,429,91.82s5.89,18.06,14.85,18.06a16.51,16.51,0,0,0,10.92-4.68l2,2.64a19.77,19.77,0,0,1-13.05,5.36c-10.59,0-18.61-7.83-18.61-21.38"/><polyline class="cls-1" points="485.9 56.06 516.7 56.06 516.7 59.47 489.82 59.47 489.82 80.68 512.35 80.68 512.35 84.09 489.82 84.09 489.82 108.79 517.56 108.79 517.56 112.2 485.9 112.2 485.9 56.06"/><path class="cls-1" d="M564.05,120.55c0-3.58,2.31-7.16,6.06-9.88v-.36a7.27,7.27,0,0,1-3.58-6.56c0-3.67,2.64-6.22,4.43-7.5v-.34a15.22,15.22,0,0,1-5.12-11.24,14.08,14.08,0,0,1,13.79-14.36q.32,0,.63,0a14.5,14.5,0,0,1,5.37,1h13.91v3.15H590a13.6,13.6,0,0,1,4.53,10.31,14,14,0,0,1-13.59,14.4h-.66a14.3,14.3,0,0,1-6.83-1.71c-1.79,1.45-3.33,3.16-3.33,5.88,0,3,1.71,5.37,7.85,5.37h8.79c9.22,0,13.49,2.9,13.49,9.37,0,7.07-7.6,13.8-19.38,13.8-10.32,0-16.81-4.43-16.81-11.33m32.35-2c0-4.52-3.33-6.22-9.48-6.22h-8.79a25.22,25.22,0,0,1-5.12-.68c-3.75,2.55-5.37,5.7-5.37,8.6,0,5.11,5,8.6,13.65,8.6,9.22,0,15.11-5.23,15.11-10.34Zm-5.55-33.82c0-6.91-4.78-11.34-10.58-11.34s-10.67,4.35-10.67,11.34,5,11.5,10.67,11.5,10.58-4.64,10.58-11.54Z"/><path class="cls-1" d="M608.18,106.75V51h3.75v56.36c0,1.79.77,2.64,1.79,2.64a6.67,6.67,0,0,0,1.54-.17l.68,3.07a8.16,8.16,0,0,1-2.73.42c-3.33,0-5-2-5-6.47"/><path class="cls-1" d="M623,102c0-9,8.19-13.38,26.46-15.42.08-6.22-1.63-13-9.73-13-5.46,0-10.24,2.73-13.06,4.77l-1.71-2.81c2.91-2,8.62-5.28,15.28-5.28,9.64,0,13,7,13,15.76V112.2H649.6v-5.28h-.26c-4.18,3.32-9.13,6.3-14.51,6.3-6.48,0-11.86-3.49-11.86-11.24m26.44,1.33V89.46c-16.9,2-22.62,5.87-22.62,12.35,0,5.88,4,8.18,8.71,8.18S644.29,107.69,649.41,103.31Z"/><path class="cls-1" d="M270.69,62a2.48,2.48,0,1,1-2.48-2.48A2.48,2.48,0,0,1,270.69,62h0"/><rect class="cls-1" x="412.34" y="71.36" width="3.75" height="40.89"/><path class="cls-1" d="M416.69,62a2.48,2.48,0,1,1-2.49-2.47h0A2.49,2.49,0,0,1,416.69,62"/><path class="cls-1" d="M681.13,70.31c-5.59,0-9.75,3.07-13.9,7.2H667v-6.2h-3.75V112.2H667V81.37c5-5.12,8.53-7.67,13.4-7.67,6.65,0,9.38,4.09,9.38,12.78V112.2h3.76V86c0-10.57-3.93-15.68-12.38-15.68"/><path class="cls-1" d="M544.53,70.31c-5.59,0-9.76,3.07-13.91,7.2h-.26v-6.2h-3.75V112.2h3.75V81.37c5-5.12,8.53-7.67,13.4-7.67,6.66,0,9.39,4.09,9.39,12.78V112.2h3.75V86c0-10.57-3.92-15.68-12.37-15.68"/><path class="cls-1" d="M732.73,51V75h-.24c-3.92-3-7.17-4.73-12-4.73-9.73,0-18.18,8.35-18.18,21.55,0,13.8,6.66,21.38,17,21.38,5.46,0,10-3,13.31-6.3h.26v5.28h3.58V51H732.7m0,52.22c-4.35,4.35-8.36,6.73-12.88,6.73-8.71,0-13.48-7.24-13.48-18.06,0-10.31,6.23-18.23,14.42-18.23,4,0,7.59,1.45,11.94,5.28Z"/></g></g></svg>